<?xml version="1.0" encoding="utf-8"?>
<!-- Generator: Adobe Illustrator 16.0.0, SVG Export Plug-In . SVG Version: 6.00 Build 0)  -->
<!DOCTYPE svg PUBLIC "-//W3C//DTD SVG 1.1//EN" "http://www.w3.org/Graphics/SVG/1.1/DTD/svg11.dtd">
<svg version="1.1" id="Calque_1" xmlns="http://www.w3.org/2000/svg" xmlns:xlink="http://www.w3.org/1999/xlink" x="0px" y="0px"
	 width="196px" height="51px" viewBox="0 2 196 51" enable-background="new 0 2 196 51" xml:space="preserve">
<g>
	<g>
		<path fill="#1D1D1B" d="M12.255,35.967c-7.154-1.465-8.792-3.404-8.792-6.594v-0.087c0-3.145,2.931-5.688,7.37-5.688
			c3.319,0,6.163,0.948,9.008,3.405l1.422-1.767c-3.06-2.457-5.948-3.664-10.344-3.664c-5.603,0-9.697,3.448-9.697,7.929v0.087
			c0,4.568,2.931,7.024,10.171,8.49c6.854,1.379,8.534,3.233,8.534,6.422v0.086c0,3.448-3.103,5.99-7.628,5.99
			c-4.439,0-7.499-1.421-10.818-4.482l-1.465,1.682c3.62,3.232,7.327,4.827,12.153,4.827c5.818,0,9.999-3.362,9.999-8.232v-0.086
			C22.167,39.889,19.237,37.39,12.255,35.967z"/>
		<path fill="#1D1D1B" d="M37.21,29.674c-6.551,0-11.334,5.346-11.334,11.508v0.087c0,6.163,4.741,11.421,11.249,11.421
			c6.552,0,11.335-5.345,11.335-11.508v-0.085C48.459,34.933,43.719,29.674,37.21,29.674z M46.175,41.269
			c0,5.171-3.75,9.439-8.965,9.439c-5.085,0-9.05-4.225-9.05-9.526v-0.085c0-5.173,3.75-9.439,8.964-9.439
			c5.086,0,9.051,4.223,9.051,9.524V41.269z"/>
		<path fill="#1D1D1B" d="M71.146,36.44v-6.248h0h-2.111v12.714c0,4.568-3.319,7.844-7.628,7.844c-4.44,0-6.982-2.974-6.982-7.499
			V30.192h-2.112v13.446c0,5.258,3.231,9.051,8.792,9.051c4.009,0,6.465-2.025,7.931-4.611v4.095h2.111h0v-9.008
			c0-7.154,4.439-10.99,9.525-10.99h0.215v-2.328C76.533,29.674,72.87,32.52,71.146,36.44z"/>
		<path fill="#1D1D1B" d="M93.056,50.708c-5.043,0-9.051-4.225-9.051-9.526v-0.085c0-5.259,3.879-9.439,8.878-9.439
			c3.275,0,5.43,1.681,7.327,3.621l1.509-1.552c-2.068-2.156-4.655-4.053-8.792-4.053c-6.293,0-11.207,5.346-11.207,11.508v0.087
			c0,6.163,4.871,11.421,11.207,11.421c4.051,0,6.724-1.81,8.964-4.353l-1.465-1.293C98.573,49.112,96.159,50.708,93.056,50.708z"/>
		<rect x="106.732" y="30.192" fill="#1D1D1B" width="2.112" height="21.98"/>
		<rect x="106.475" y="21.572" fill="#1D1D1B" width="2.629" height="2.888"/>
		<path fill="#1D1D1B" d="M124.706,29.674c-4.009,0-6.466,2.027-7.931,4.612v-4.094h-2.112v21.98h2.112V39.458
			c0-4.568,3.318-7.844,7.628-7.844c4.44,0,6.982,2.974,6.982,7.499v13.06h2.112V38.726
			C133.498,33.467,130.265,29.674,124.706,29.674z"/>
		<polygon fill="#1D1D1B" points="147.506,39.933 157.117,30.192 154.316,30.192 140.697,44.285 140.697,20.71 138.585,20.71 
			138.585,52.173 140.697,52.173 140.697,46.828 146.041,41.44 154.748,52.173 157.419,52.173 		"/>
	</g>
	<g>
		<path fill="#F02945" d="M190.098,7.545c-6.994-6.994-18.334-6.994-25.327,0c-6.229,6.228-6.906,15.9-2.042,22.882l-2.344,2.346
			l-4.485,4.485c2.477,2.477,6.492,2.477,8.97,0l2.346-2.345c6.982,4.864,16.654,4.187,22.883-2.041
			C197.091,25.879,197.091,14.54,190.098,7.545z M177.434,33.594c-7.33,0-13.273-5.943-13.273-13.274
			c0-7.331,5.943-13.274,13.273-13.274c7.332,0,13.275,5.943,13.275,13.274C190.709,27.651,184.766,33.594,177.434,33.594z"/>
		<path fill="#F02945" d="M168.461,16.795l3.302,1.468c2.126-4.781,5.778-8.079,9.194-8.729
			C175.806,9.02,170.68,11.806,168.461,16.795z"/>
	</g>
</g>
</svg>
