<?xml version="1.0" encoding="utf-8"?>
<!-- Generator: Adobe Illustrator 16.0.0, SVG Export Plug-In . SVG Version: 6.00 Build 0)  -->
<!DOCTYPE svg PUBLIC "-//W3C//DTD SVG 1.1//EN" "http://www.w3.org/Graphics/SVG/1.1/DTD/svg11.dtd">
<svg version="1.1" id="Calque_1" xmlns="http://www.w3.org/2000/svg" xmlns:xlink="http://www.w3.org/1999/xlink" x="0px" y="0px"
	 width="270px" height="270px" viewBox="0.5 792.5 270 270" enable-background="new 0.5 792.5 270 270" xml:space="preserve">
<g>
	<g>
		<path fill="#00A2C1" d="M136.176,792.5h-1.294C60.793,792.824,0.783,852.835,0.5,926.957v0.974
			c0.241,74.251,60.414,134.398,134.707,134.561h0.482c74.438-0.104,134.777-60.459,134.811-134.939
			C270.53,853.201,210.457,792.87,136.176,792.5z M218.412,890.944l-0.212,74.593c0,0.611-0.059,1.244-0.162,1.885
			c-0.104,0.641-0.259,1.29-0.454,1.935c-0.333,1.086-0.791,2.163-1.339,3.199c-0.208,0.391-0.433,0.778-0.666,1.152
			c-0.2,0.32-0.408,0.633-0.624,0.937c-0.666,0.94-1.407,1.813-2.206,2.563c-0.241,0.225-0.486,0.445-0.741,0.648
			c-0.499,0.408-1.019,0.774-1.547,1.082l-62.494,36.316c-0.453,0.263-0.898,0.467-1.327,0.629c-1.906,0.803-4.153,1.227-6.42,1.227
			c-2.792,0-5.579-0.611-7.697-1.834l-62.981-36.362c-4.252-2.455-7.717-8.479-7.705-13.389l0.212-74.805
			c0.012-4.909,3.499-10.941,7.743-13.409l62.494-36.316c2.13-1.24,4.938-1.855,7.747-1.855c2.792,0,5.58,0.611,7.697,1.834
			l62.981,36.363c4.248,2.454,7.718,8.479,7.706,13.388L218.412,890.944z"/>
		<path fill="#00A2C1" d="M204.678,887.649l-62.914-36.321c-0.087-0.037-0.741-0.236-1.727-0.236c-0.998,0-1.66,0.203-1.814,0.274
			l-62.432,36.283c-0.661,0.47-1.722,2.305-1.801,3.187l-0.208,74.738c0.075,0.778,1.098,2.559,1.797,3.05l62.915,36.32
			c0.086,0.033,0.74,0.233,1.726,0.233c0.024,0,0.045,0,0.071,0l0.195-69.155c0.017-4.909,3.499-10.941,7.742-13.409l57.614-33.482
			C205.485,888.502,205.04,887.903,204.678,887.649z"/>
	</g>
</g>
</svg>
