<?xml version="1.0" encoding="utf-8"?>
<!-- Generator: Adobe Illustrator 16.0.0, SVG Export Plug-In . SVG Version: 6.00 Build 0)  -->
<!DOCTYPE svg PUBLIC "-//W3C//DTD SVG 1.1//EN" "http://www.w3.org/Graphics/SVG/1.1/DTD/svg11.dtd">
<svg version="1.1" id="Calque_1" xmlns="http://www.w3.org/2000/svg" xmlns:xlink="http://www.w3.org/1999/xlink" x="0px" y="0px"
	 width="130px" height="130px" viewBox="0 0 130 130" enable-background="new 0 0 130 130" xml:space="preserve">
<g display="none">
	<g display="inline">
		<circle fill="#A0516E" cx="240.092" cy="172.385" r="77.677"/>
		<g>
			<path fill="#A0516E" d="M161.475,235.468c-4.709,0.941-6.592-1.883-4.709-6.12l16.948-33.896
				c1.884-4.237,7.532-6.591,11.769-5.179l13.652,4.236c4.237,1.412,8.004,6.12,8.004,10.828v14.123
				c0,4.708-3.768,8.945-8.475,9.887L161.475,235.468z"/>
		</g>
	</g>
</g>
<g>
	<g>
		<path fill="#00A2C1" d="M111.965,21.847C100.617,10.499,85.746,4.826,70.873,4.826s-29.744,5.673-41.092,17.021
			C9.572,42.056,7.377,73.441,23.159,96.1l-7.607,7.61L1,118.262c4.017,4.016,9.28,6.025,14.545,6.027h0.014
			c5.265-0.002,10.53-2.012,14.546-6.027l7.61-7.609c22.656,15.785,54.04,13.59,74.249-6.621
			C134.658,81.337,134.658,44.542,111.965,21.847z M70.877,106.366c-23.79,0-43.074-19.282-43.074-43.071
			c0-23.787,19.285-43.072,43.074-43.072s43.072,19.285,43.072,43.072C113.949,87.084,94.666,106.366,70.877,106.366z"/>
		<path fill="#00A2C1" d="M85.389,39.677h-6.297v5.508l-8.48-5.508L41.534,58.56h5.204v22.515h46.999V58.56h5.951l-14.299-9.286
			V39.677z M75.842,75.967h-8.439V60.381h8.439V75.967z"/>
	</g>
</g>
</svg>
