<?xml version="1.0" encoding="utf-8"?>
<!-- Generator: Adobe Illustrator 16.0.0, SVG Export Plug-In . SVG Version: 6.00 Build 0)  -->
<!DOCTYPE svg PUBLIC "-//W3C//DTD SVG 1.1//EN" "http://www.w3.org/Graphics/SVG/1.1/DTD/svg11.dtd">
<svg version="1.1" id="Calque_1" xmlns="http://www.w3.org/2000/svg" xmlns:xlink="http://www.w3.org/1999/xlink" x="0px" y="0px"
	 width="130px" height="130px" viewBox="0 0 130 130" enable-background="new 0 0 130 130" xml:space="preserve">
<g>
	<g>
		<path fill="#786683" d="M112.633,21.847C101.285,10.499,86.412,4.826,71.537,4.826c-14.869,0-29.742,5.673-41.09,17.021
			C10.236,42.056,8.043,73.441,23.826,96.1l-7.607,7.61L1.666,118.262c4.016,4.016,9.279,6.025,14.545,6.027h0.014
			c5.266-0.002,10.529-2.012,14.545-6.027l7.611-7.609c22.658,15.785,54.043,13.59,74.252-6.621
			C135.324,81.337,135.324,44.542,112.633,21.847z M71.543,106.366c-23.789,0-43.072-19.282-43.072-43.071
			c0-23.787,19.283-43.072,43.072-43.072c23.787,0,43.072,19.285,43.072,43.072C114.615,87.084,95.33,106.366,71.543,106.366z"/>
		<path fill="#786683" d="M68.475,74.501h0.32c0.029-0.084,0.049-0.142,0.049-0.142v-0.643c-0.867-0.474-1.752-1.227-2.594-2.104
			L68.475,74.501z"/>
		<path fill="#786683" d="M91.51,75.038c-1.188-2.215-3.393-4.948-7.484-7.531l-0.021,0.015L84,67.507l-3.234-2.12l-0.393-0.258
			l-0.004,0.004l-0.035-0.022l-0.047-0.242c0,0-4.246,6.956-7.957,8.877v0.712v0.004c0.016,0.035,0.029,0.085,0.049,0.122
			c0.041,0.009,0.086,0.021,0.133,0.03c-0.047-0.011-0.09-0.021-0.133-0.03c0.184,0.402,0.354,0.886,0.521,1.423
			c1.498,4.879,2.285,14.812,2.701,21.208c1.172-0.146,2.323-0.346,3.457-0.604c0.19-1.108,0.362-2.213,0.516-3.303
			c-0.15,1.09-0.324,2.193-0.514,3.303c0.77-0.174,1.532-0.371,2.285-0.598c3.659-1.089,7.071-2.752,10.135-4.885
			c0,0,0-0.002,0.002-0.002c0.479-0.334,0.953-0.682,1.418-1.04v-2.979v-0.002v-4.57v-2.954c0,0,0.027-1.563-1.029-3.827
			C91.764,75.523,91.643,75.283,91.51,75.038z M74.625,77.657l0.033,0.034c0.154,0.177,0.311,0.358,0.465,0.545
			c-0.154-0.187-0.313-0.366-0.465-0.543L74.625,77.657z"/>
		<path fill="#786683" d="M73.273,66.594c0.387-0.046,0.77-0.095,1.147-0.164c0.238-0.041,0.47-0.099,0.701-0.148
			c0.332-0.072,0.662-0.147,0.985-0.237c0.25-0.067,0.498-0.146,0.744-0.224c0.297-0.096,0.588-0.194,0.879-0.299
			c0.258-0.099,0.513-0.198,0.763-0.305c0.266-0.111,0.526-0.229,0.784-0.351c0.263-0.125,0.523-0.251,0.779-0.384
			c0.228-0.121,0.451-0.25,0.676-0.378c0.269-0.158,0.541-0.315,0.804-0.484c0.182-0.118,0.354-0.242,0.528-0.364
			c0.291-0.202,0.582-0.401,0.861-0.617c0.084-0.065,0.162-0.135,0.244-0.202c0.783-0.625,1.518-1.309,2.195-2.043
			c0.68-0.734,1.305-1.522,1.865-2.355c0.012-0.018,0.022-0.034,0.035-0.051c0.272-0.409,0.528-0.828,0.771-1.258
			c0.024-0.045,0.053-0.088,0.075-0.133c0.234-0.424,0.455-0.859,0.66-1.3c0.021-0.049,0.045-0.098,0.066-0.147
			c0.203-0.448,0.389-0.907,0.559-1.372c0.017-0.039,0.027-0.081,0.045-0.12c0.168-0.475,0.322-0.958,0.457-1.449
			c0.002-0.007,0.002-0.013,0.004-0.019c0-0.002,0-0.004,0.002-0.007v-0.001c0-0.001,0.003-0.004,0.003-0.005
			c0.131-0.479,0.245-0.961,0.342-1.451c0.103-0.522,0.188-1.05,0.246-1.586c0.071-0.696,0.116-1.401,0.116-2.115
			c0-0.037-0.006-0.07-0.006-0.107c-0.059-10.847-8.864-19.624-19.727-19.624c-10.896,0-19.729,8.833-19.729,19.731
			c0,0.01,0,0.023,0,0.034c0.002,0.702,0.045,1.396,0.115,2.081c0.027,0.239,0.076,0.47,0.109,0.707
			c0.041,0.287,0.08,0.574,0.133,0.856c0.098,0.491,0.213,0.974,0.342,1.454c0,0.008,0.004,0.018,0.004,0.026
			c0.004,0.009,0.006,0.017,0.008,0.027c0.137,0.5,0.295,0.989,0.467,1.472c0.01,0.027,0.02,0.055,0.029,0.083
			c0.172,0.475,0.363,0.94,0.57,1.396c0.018,0.041,0.037,0.082,0.057,0.122c0.207,0.45,0.43,0.891,0.668,1.321
			c0.021,0.039,0.045,0.076,0.066,0.114c0.246,0.435,0.504,0.86,0.781,1.273c0.006,0.013,0.018,0.026,0.025,0.039
			c0.561,0.833,1.182,1.619,1.861,2.351c0.676,0.734,1.408,1.418,2.189,2.042c0.088,0.072,0.174,0.147,0.262,0.216
			c0.275,0.214,0.563,0.409,0.848,0.607c0.182,0.126,0.359,0.255,0.547,0.374c0.258,0.167,0.527,0.323,0.793,0.477
			c0.205,0.119,0.408,0.239,0.619,0.352l-0.297,0.712c0.002-0.038,0.002-0.073,0.002-0.11l-0.916,0.598l-0.025,0.021l-2.805,1.836
			c-3.293,2.077-5.361,4.252-6.664,6.174c-0.662,0.979-1.127,1.891-1.453,2.693c-0.779,1.926-0.758,3.21-0.758,3.21v2.493v6.697
			v0.002c0.104,0.322,0.217,0.662,0.33,1.007c0,0,0,0,0.002,0.002c2.285,1.813,4.793,3.352,7.482,4.563
			c2.102,0.95,4.311,1.701,6.607,2.229c-0.516-3.25-0.963-6.843-1.289-10.843c0.002-0.004,0.002-0.004,0.002-0.004
			c0.324,4.002,0.771,7.595,1.289,10.848c0.773,0.178,1.555,0.335,2.35,0.463c0.656-11.484,2.049-18.066,2.813-20.932
			c0.179-0.668,0.326-1.153,0.416-1.432c0.025-0.078,0.043-0.128,0.062-0.176h-0.319l-2.228-2.891
			c-1.461-1.529-2.795-3.416-3.699-4.808l-0.486-2.133c0.139,0.07,0.283,0.124,0.422,0.188c0.262,0.124,0.525,0.242,0.795,0.356
			c0.248,0.103,0.498,0.203,0.752,0.299c0.293,0.106,0.59,0.207,0.889,0.305c0.242,0.076,0.488,0.151,0.736,0.221
			c0.328,0.09,0.658,0.165,0.992,0.236c0.231,0.053,0.461,0.108,0.696,0.149c0.377,0.069,0.767,0.118,1.152,0.166
			c0.196,0.023,0.394,0.058,0.594,0.076c0.593,0.053,1.188,0.084,1.791,0.084c0.604,0,1.203-0.031,1.793-0.084
			C72.877,66.652,73.074,66.619,73.273,66.594z M66.826,77.639v0.002l-0.076,0.096l0.074-0.098l0.262-0.301L66.826,77.639z
			 M70.883,63.884c-0.51,0-1.018-0.026-1.52-0.07c-0.135-0.013-0.268-0.035-0.402-0.051c-0.357-0.041-0.715-0.086-1.068-0.147
			c-0.172-0.033-0.34-0.07-0.508-0.106c-0.311-0.065-0.617-0.136-0.92-0.217c-0.182-0.05-0.363-0.103-0.543-0.158
			c-0.285-0.086-0.563-0.182-0.842-0.283c-0.182-0.066-0.363-0.132-0.541-0.206c-0.27-0.108-0.533-0.229-0.795-0.352
			c-0.176-0.081-0.354-0.159-0.525-0.246c-0.266-0.136-0.52-0.284-0.775-0.431c-0.158-0.092-0.32-0.174-0.477-0.272
			c-0.377-0.235-0.744-0.486-1.104-0.75c-0.205-0.152-0.398-0.316-0.594-0.476c-0.162-0.133-0.328-0.26-0.486-0.397
			c-0.205-0.181-0.402-0.369-0.598-0.559c-0.137-0.131-0.271-0.261-0.402-0.397c-0.199-0.203-0.389-0.414-0.578-0.628
			c-0.113-0.13-0.225-0.262-0.334-0.396c-0.189-0.229-0.375-0.463-0.553-0.704c-0.09-0.123-0.178-0.248-0.264-0.375
			c-0.182-0.26-0.361-0.523-0.527-0.794c-0.059-0.096-0.111-0.195-0.168-0.292c-0.604-1.026-1.104-2.12-1.48-3.275
			c-0.01-0.031-0.021-0.06-0.031-0.091c-0.002-0.009-0.008-0.018-0.01-0.026h-0.002v-0.001h0.002
			c-0.148-0.465-0.271-0.942-0.383-1.424c-0.004-0.027-0.016-0.052-0.02-0.079c-0.014-0.053-0.029-0.105-0.041-0.159
			c-0.094-0.452-0.162-0.916-0.223-1.38c-0.004-0.03-0.01-0.057-0.014-0.086c-0.008-0.073-0.025-0.144-0.035-0.217
			c-0.008-0.082-0.004-0.152-0.01-0.232c-0.002-0.006-0.002-0.011-0.002-0.019c-0.029-0.304-0.039-0.592-0.051-0.881
			c-0.008-0.194-0.029-0.399-0.031-0.591c0-0.028-0.006-0.062-0.006-0.089c0-0.001,0-0.001,0-0.001l0.01-0.203v-0.015
			c0.824-0.115,1.781-0.288,2.854-0.534c5.053-1.159,12.768-4.029,22.188-11.086c0,0,0.004,0.008,0.004,0.01
			c0.02,0.072,1.219,4.627,4.598,8.071c0.061,0.06,0.127,0.116,0.186,0.178c0.252,0.248,0.517,0.489,0.789,0.722
			c0.142,0.117,0.289,0.231,0.437,0.345c0.211,0.163,0.427,0.32,0.647,0.472c0.189,0.128,0.382,0.254,0.578,0.373
			c0.195,0.118,0.402,0.225,0.605,0.332c0.234,0.123,0.467,0.249,0.713,0.357c0.023,0.01,0.043,0.021,0.064,0.031
			c0,0,0,0.002,0.004,0.002h-0.004c0.006,0.066,0.006,0.128,0.012,0.194c0.016,0.25,0.037,0.499,0.037,0.752
			c0,0.219-0.027,0.458-0.035,0.682c-0.008,0.115-0.014,0.234-0.021,0.352c0,0.005,0,0.012,0,0.017
			c-0.018,0.255-0.016,0.495-0.043,0.763c-0.002,0.01-0.006,0.021-0.008,0.031c-0.008,0.092-0.029,0.18-0.043,0.272
			c-0.057,0.467-0.125,0.932-0.221,1.385c-0.01,0.042-0.021,0.082-0.033,0.122c-0.068,0.311-0.158,0.614-0.244,0.919
			c-0.057,0.202-0.1,0.409-0.16,0.609c0,0.002,0,0.005-0.002,0.008v0.001h-0.002c-0.004,0.008-0.008,0.017-0.012,0.026
			c-0.385,1.208-0.908,2.351-1.541,3.418c-0.045,0.075-0.086,0.153-0.131,0.227c-0.174,0.284-0.361,0.558-0.549,0.83
			c-0.082,0.114-0.158,0.227-0.242,0.339c-0.182,0.249-0.373,0.492-0.57,0.729c-0.102,0.125-0.207,0.249-0.313,0.371
			c-0.191,0.221-0.39,0.439-0.595,0.649c-0.125,0.127-0.252,0.249-0.381,0.373c-0.203,0.196-0.404,0.393-0.619,0.58
			c-0.146,0.127-0.301,0.247-0.453,0.372c-0.207,0.167-0.409,0.34-0.625,0.499c-0.354,0.261-0.719,0.512-1.098,0.746
			c-0.16,0.1-0.33,0.188-0.496,0.282c-0.25,0.144-0.498,0.289-0.756,0.42c-0.176,0.089-0.355,0.168-0.533,0.251
			c-0.258,0.122-0.52,0.239-0.783,0.348c-0.182,0.074-0.366,0.14-0.551,0.206c-0.274,0.102-0.555,0.196-0.836,0.282
			c-0.182,0.056-0.361,0.109-0.545,0.159c-0.301,0.082-0.607,0.152-0.916,0.217c-0.17,0.036-0.34,0.074-0.512,0.106
			c-0.352,0.061-0.709,0.107-1.068,0.147c-0.133,0.017-0.268,0.039-0.402,0.051C71.902,63.858,71.398,63.884,70.883,63.884z"/>
		<path fill="#786683" d="M64.381,45.85c-0.422,0-0.797,0.169-1.094,0.423c-0.203,0.173-0.379,0.377-0.482,0.627
			c-0.084,0.203-0.133,0.426-0.133,0.659c0,0.052,0.025,0.096,0.029,0.147c0.012,0.129,0.037,0.253,0.076,0.373
			c0.002,0.005,0.002,0.012,0.002,0.018c0.162,0.479,0.514,0.862,0.982,1.045c0.193,0.074,0.398,0.125,0.619,0.125
			c0.219,0,0.424-0.051,0.617-0.125c0.528-0.208,0.901-0.676,1.021-1.246c0-0.005,0-0.01,0.004-0.017
			c0.013-0.059,0.027-0.113,0.035-0.172c0.004-0.046,0.025-0.085,0.025-0.133c0-0.005,0.004-0.009,0.004-0.015
			c0-0.522-0.248-0.974-0.617-1.286C65.176,46.019,64.801,45.85,64.381,45.85z"/>
		<path fill="#786683" d="M75.504,47.895c0.002,0.005,0.002,0.011,0.004,0.017c0.023,0.11,0.027,0.226,0.074,0.327
			c0.18,0.416,0.52,0.737,0.943,0.903c0.19,0.074,0.397,0.125,0.617,0.125c0.221,0,0.426-0.051,0.619-0.125
			c0.52-0.202,0.887-0.653,1.014-1.203c0.002-0.007,0.002-0.013,0.004-0.018c0.016-0.072,0.035-0.14,0.043-0.214
			c0.006-0.052,0.029-0.095,0.029-0.147c0-0.467-0.189-0.89-0.494-1.198c-0.035-0.037-0.082-0.056-0.121-0.088
			c-0.297-0.253-0.67-0.423-1.094-0.423c-0.422,0-0.793,0.169-1.093,0.423c-0.368,0.313-0.614,0.764-0.614,1.286
			c0,0.052,0.024,0.096,0.028,0.147C75.471,47.771,75.488,47.831,75.504,47.895z"/>
	</g>
</g>
</svg>
