<?xml version="1.0" encoding="utf-8"?>
<!-- Generator: Adobe Illustrator 16.0.0, SVG Export Plug-In . SVG Version: 6.00 Build 0)  -->
<!DOCTYPE svg PUBLIC "-//W3C//DTD SVG 1.1//EN" "http://www.w3.org/Graphics/SVG/1.1/DTD/svg11.dtd">
<svg version="1.1" id="Calque_1" xmlns="http://www.w3.org/2000/svg" xmlns:xlink="http://www.w3.org/1999/xlink" x="0px" y="0px"
	 width="130px" height="130px" viewBox="0 0 130 130" enable-background="new 0 0 130 130" xml:space="preserve">
<g display="none">
	<g display="inline">
		<circle fill="#A0516E" cx="87.092" cy="172.385" r="77.677"/>
		<g>
			<path fill="#A0516E" d="M8.474,235.468c-4.708,0.941-6.59-1.883-4.708-6.12l16.948-33.896c1.883-4.237,7.532-6.591,11.769-5.179
				l13.652,4.236c4.237,1.412,8.003,6.12,8.003,10.828v14.123c0,4.708-3.767,8.945-8.474,9.887L8.474,235.468z"/>
		</g>
	</g>
</g>
<g>
	<g>
		<path fill="#F02945" d="M112.99,22.923c-0.34-0.359-0.67-0.725-1.023-1.077c-0.01-0.01-0.02-0.02-0.029-0.029
			C100.594,10.49,85.734,4.826,70.875,4.826c-14.871,0-29.744,5.673-41.092,17.021C9.574,42.056,7.379,73.441,23.162,96.1
			l-7.607,7.61L1.002,118.262c4.016,4.016,9.279,6.025,14.545,6.027h0.014c5.264-0.002,10.527-2.012,14.547-6.027l7.609-7.609
			c22.523,15.689,53.668,13.604,73.885-6.274c0.121-0.118,0.248-0.229,0.365-0.348c0.354-0.352,0.684-0.717,1.023-1.076
			C134.299,80.547,134.299,45.331,112.99,22.923z M83.842,104.378c-4.09,1.289-8.445,1.988-12.963,1.988s-8.873-0.699-12.967-1.988
			c-12.727-4.013-22.904-13.774-27.48-26.244c-1.699-4.626-2.627-9.624-2.627-14.839c0-5.214,0.928-10.211,2.627-14.838
			c4.736-12.909,15.48-22.909,28.842-26.639c3.693-1.031,7.582-1.595,11.605-1.595s7.912,0.563,11.605,1.595
			c15.297,4.272,27.156,16.768,30.506,32.425c0.627,2.92,0.963,5.946,0.963,9.052c0,3.105-0.336,6.132-0.963,9.051
			C109.74,87.539,98.482,99.764,83.842,104.378z"/>
		<path fill="#F02945" d="M55.375,40.958c-4.1,4.246-6.652,9.84-7.648,16.782h-4.18l-1.262,4.046h5.045v1.574v1.575
			c0,0.497,0.025,1.001,0.078,1.498h-3.861l-1.262,4.044h5.678c1.209,6.547,3.836,11.717,7.883,15.514
			c4.471,4.194,10.383,6.292,17.742,6.292c5.307,0,9.906-1.073,13.799-3.222v-6.744c-2.84,1.797-4.994,2.897-6.467,3.299
			c-1.84,0.599-4.363,0.898-7.57,0.898c-5.256,0-9.488-1.598-12.693-4.795c-2.943-2.748-4.916-6.494-5.912-11.242h24.994l1.34-4.044
			H54.111c-0.053-0.55-0.09-1.097-0.117-1.648c-0.025-0.551-0.041-1.099-0.041-1.65v-1.348H82.34l1.34-4.046H54.348
			c0.895-5.193,2.789-9.365,5.678-12.511c3.365-3.646,7.754-5.471,13.166-5.471c3.416,0,6.072,0.326,7.965,0.976
			c1.684,0.599,3.76,1.797,6.23,3.594l1.576-5.619c-3.996-3.195-9.121-4.794-15.375-4.794
			C66.068,33.914,59.998,36.263,55.375,40.958z"/>
	</g>
</g>
</svg>
